<?xml version="1.0" encoding="iso-8859-1"?>
<!-- Generator: Adobe Illustrator 19.0.0, SVG Export Plug-In . SVG Version: 6.00 Build 0)  -->
<svg xmlns="http://www.w3.org/2000/svg" xmlns:xlink="http://www.w3.org/1999/xlink" version="1.1" id="Capa_1" x="0px" y="0px" viewBox="0 0 512 512" style="enable-background:new 0 0 512 512;" xml:space="preserve" width="512px" height="512px">
<g>
	<g>
		<path d="M478.968,101.079H33.032C14.818,101.079,0,115.897,0,134.111v311.164c0,18.214,14.818,33.032,33.032,33.032h445.935    c18.214,0,33.032-14.818,33.032-33.032V134.111C512,115.897,497.182,101.079,478.968,101.079z M472.361,438.668H39.639V140.717    h432.723V438.668z" fill="#007303"/>
	</g>
</g>
<g>
	<g>
		<path d="M327.68,33.693H184.981c-18.214,0-33.032,14.818-33.032,33.032v54.173h39.639V73.332h129.486v47.566h39.639V66.725    C360.712,48.511,345.894,33.693,327.68,33.693z" fill="#007303"/>
	</g>
</g>
<g>
	<g>
		<path d="M323.716,269.543H188.945c-10.947,0-19.819,8.872-19.819,19.819s8.872,19.819,19.819,19.819h134.772    c10.947,0,19.819-8.872,19.819-19.819S334.663,269.543,323.716,269.543z" fill="#007303"/>
	</g>
</g>
<g>
	<g>
		<path d="M256.33,202.157c-10.947,0-19.819,8.872-19.819,19.819v134.772c0,10.947,8.872,19.819,19.819,19.819    s19.819-8.866,19.819-19.819V221.977C276.15,211.03,267.277,202.157,256.33,202.157z" fill="#007303"/>
	</g>
</g>
<g>
</g>
<g>
</g>
<g>
</g>
<g>
</g>
<g>
</g>
<g>
</g>
<g>
</g>
<g>
</g>
<g>
</g>
<g>
</g>
<g>
</g>
<g>
</g>
<g>
</g>
<g>
</g>
<g>
</g>
</svg>
