<svg xmlns="http://www.w3.org/2000/svg" width="1024" height="1024" viewBox="0 0 1024 1024">
  <metadata><?xpacket begin="﻿" id="W5M0MpCehiHzreSzNTczkc9d"?>
<x:xmpmeta xmlns:x="adobe:ns:meta/" x:xmptk="Adobe XMP Core 5.6-c138 79.159824, 2016/09/14-01:09:01        ">
   <rdf:RDF xmlns:rdf="http://www.w3.org/1999/02/22-rdf-syntax-ns#">
      <rdf:Description rdf:about=""/>
   </rdf:RDF>
</x:xmpmeta>
                                                                                                    
                                                                                                    
                                                                                                    
                                                                                                    
                                                                                                    
                                                                                                    
                                                                                                    
                                                                                                    
                                                                                                    
                                                                                                    
                                                                                                    
                                                                                                    
                                                                                                    
                                                                                                    
                                                                                                    
                                                                                                    
                                                                                                    
                                                                                                    
                                                                                                    
                                                                                                    
                           
<?xpacket end="w"?></metadata>
<defs>
    <style>
      .cls-1 {
        fill: #303030;
        fill-rule: evenodd;
      }
    </style>
  </defs>
  <path id="Shape_1_copy_2" data-name="Shape 1 copy 2" class="cls-1" d="M329.972,921h363.24a65.431,65.431,0,0,0,65.306-65.316V169.315A65.431,65.431,0,0,0,693.212,104H329.972a65.431,65.431,0,0,0-65.306,65.316V855.684A65.431,65.431,0,0,0,329.972,921ZM713.136,730.4H309.863V254.742H713.136V730.4ZM693.029,875.8H329.972a20.158,20.158,0,0,1-20.109-20.112V775.608H713.136v80.076A20.156,20.156,0,0,1,693.029,875.8ZM329.972,149.2h363.24a20.157,20.157,0,0,1,20.109,20.111v40.223H309.863V169.315A20.157,20.157,0,0,1,329.972,149.2Zm226.541,652.79H466.487a22.694,22.694,0,0,0,0,45.388h90.026A22.694,22.694,0,0,0,556.513,801.994Zm328.19,0H819.766a22.694,22.694,0,0,0,0,45.388H884.7A77.4,77.4,0,0,0,962,770.073V255.111A77.4,77.4,0,0,0,884.7,177.8H819.766a22.694,22.694,0,0,0,0,45.388H884.7a32.126,32.126,0,0,1,32.1,32.1V770.258A32.05,32.05,0,0,1,884.7,801.994ZM138.3,847.2h64.937a22.695,22.695,0,0,0,0-45.389H138.3a32.126,32.126,0,0,1-32.1-32.1V255.111a32.125,32.125,0,0,1,32.1-32.1h64.937a22.695,22.695,0,0,0,0-45.389H138.3A77.4,77.4,0,0,0,61,254.927V769.888A77.4,77.4,0,0,0,138.3,847.2Z"/>
</svg>
