<svg xmlns="http://www.w3.org/2000/svg" width="1024" height="1024" viewBox="0 0 1024 1024">
  <metadata><?xpacket begin="﻿" id="W5M0MpCehiHzreSzNTczkc9d"?>
<x:xmpmeta xmlns:x="adobe:ns:meta/" x:xmptk="Adobe XMP Core 5.6-c138 79.159824, 2016/09/14-01:09:01        ">
   <rdf:RDF xmlns:rdf="http://www.w3.org/1999/02/22-rdf-syntax-ns#">
      <rdf:Description rdf:about=""/>
   </rdf:RDF>
</x:xmpmeta>
                                                                                                    
                                                                                                    
                                                                                                    
                                                                                                    
                                                                                                    
                                                                                                    
                                                                                                    
                                                                                                    
                                                                                                    
                                                                                                    
                                                                                                    
                                                                                                    
                                                                                                    
                                                                                                    
                                                                                                    
                                                                                                    
                                                                                                    
                                                                                                    
                                                                                                    
                                                                                                    
                           
<?xpacket end="w"?></metadata>
<defs>
    <style>
      .cls-1 {
        fill: #007303;
        fill-rule: evenodd;
      }
    </style>
  </defs>
  <path id="Forma_1" data-name="Forma 1" class="cls-1" d="M860.541,766.4H805.293V595.459c0-162.146-131.843-294.126-293.821-294.126S217.651,433.313,217.651,595.459V766.4H162.4a25.2,25.2,0,0,0-25.113,25.139v148.32A25.2,25.2,0,0,0,162.4,965H861.8a25.2,25.2,0,0,0,25.112-25.138V791.542C885.654,777.715,874.353,766.4,860.541,766.4ZM269.133,576.6H372.1a25.138,25.138,0,0,0,0-50.276H277.921c30.136-101.813,123.053-175.973,233.551-175.973,134.354,0,243.6,109.354,243.6,243.848V765.147H267.876V675.9h53.993a25.138,25.138,0,0,0,0-50.276H267.876C267.876,626.883,266.621,587.916,269.133,576.6Zm567.551,338.12H187.516V816.682H836.684v98.042ZM511.472,60a25.2,25.2,0,0,0-25.113,25.138v90.5a25.113,25.113,0,1,0,50.225,0v-90.5A25.2,25.2,0,0,0,511.472,60ZM374.607,198.265l-35.158-84.216c-5.021-12.57-20.09-18.855-32.647-13.826S287.966,120.334,292.99,132.9l35.157,84.216c6.279,12.569,21.346,17.6,32.648,13.826C373.35,225.917,379.628,210.833,374.607,198.265ZM232.718,281.222l-64.038-64.1c-10.045-10.056-25.112-10.056-35.157,0s-10.045,25.138,0,35.194l64.038,64.1c8.79,8.8,26.369,8.8,35.157,0C242.764,306.362,242.764,291.278,232.718,281.222Zm483.423-181c-12.557-5.027-27.624,1.256-32.647,13.826l-35.158,84.216c-5.021,12.57,1.255,27.652,13.812,32.681s26.369-1.257,32.648-13.826L729.953,132.9C734.977,120.334,728.7,105.249,716.141,100.223Zm173.279,116.9c-10.045-10.056-25.112-10.056-35.157,0l-64.038,64.1c-10.046,10.056-10.046,26.4,0,35.194,8.79,8.8,26.369,7.541,35.157,0l64.038-64.1C899.466,242.258,899.466,227.173,889.42,217.118Z"/>
</svg>
