<svg xmlns="http://www.w3.org/2000/svg" width="1024" height="1024" viewBox="0 0 1024 1024">
  <metadata><?xpacket begin="﻿" id="W5M0MpCehiHzreSzNTczkc9d"?>
<x:xmpmeta xmlns:x="adobe:ns:meta/" x:xmptk="Adobe XMP Core 5.6-c138 79.159824, 2016/09/14-01:09:01        ">
   <rdf:RDF xmlns:rdf="http://www.w3.org/1999/02/22-rdf-syntax-ns#">
      <rdf:Description rdf:about=""/>
   </rdf:RDF>
</x:xmpmeta>
                                                                                                    
                                                                                                    
                                                                                                    
                                                                                                    
                                                                                                    
                                                                                                    
                                                                                                    
                                                                                                    
                                                                                                    
                                                                                                    
                                                                                                    
                                                                                                    
                                                                                                    
                                                                                                    
                                                                                                    
                                                                                                    
                                                                                                    
                                                                                                    
                                                                                                    
                                                                                                    
                           
<?xpacket end="w"?></metadata>
<defs>
    <style>
      .cls-1 {
        fill: #007303;
        stroke: #007303;
        stroke-width: 2px;
        fill-rule: evenodd;
      }
    </style>
  </defs>
  <path class="cls-1" d="M922.96,488.325H885.042C873.023,301.763,723.349,152.113,536.757,140.1V102.181a24.183,24.183,0,0,0-48.366,0v37.912C301.8,152.11,152.125,301.76,140.106,488.322H102.185a24.179,24.179,0,1,0,0,48.357h37.777c12.019,186.562,161.7,336.212,348.287,348.229v37.913a24.182,24.182,0,0,0,48.364,0V884.908C723.205,872.891,872.879,723.241,884.9,536.679h37.918A24.177,24.177,0,0,0,922.96,488.325ZM488.388,188.6V331.522c-81.419,10.729-146.1,75.4-156.829,156.805H188.611C200.489,328.517,328.555,200.469,488.388,188.6Zm0,647.816c-159.977-11.875-287.9-139.779-299.777-299.729h142.95c10.733,81.407,75.41,146.074,156.83,156.805V836.412h0Zm24.326-248.367a24.06,24.06,0,0,0-24.182,24.178V644.7A134.184,134.184,0,0,1,380.5,536.683H412.98a24.178,24.178,0,1,0,0-48.356H380.5c9.874-54.8,53.229-98,108.034-108.017v32.477a24.182,24.182,0,0,0,48.364,0V380.31A134.2,134.2,0,0,1,644.787,488.327H612.3a24.178,24.178,0,1,0,0,48.356h32.483A134.547,134.547,0,0,1,536.9,644.7V612.223A24.148,24.148,0,0,0,512.714,588.045Zm24.041,248.367V693.486c81.419-10.729,145.953-75.4,156.829-156.8h142.95C824.656,696.491,696.588,824.537,536.755,836.412ZM693.582,488.325c-10.733-81.407-75.41-145.93-156.83-156.8V188.6c159.834,11.875,287.9,139.921,299.777,299.729H693.582Z"/>
</svg>
