<svg xmlns="http://www.w3.org/2000/svg" width="1024" height="1024" viewBox="0 0 1024 1024">
  <metadata><?xpacket begin="﻿" id="W5M0MpCehiHzreSzNTczkc9d"?>
<x:xmpmeta xmlns:x="adobe:ns:meta/" x:xmptk="Adobe XMP Core 5.6-c138 79.159824, 2016/09/14-01:09:01        ">
   <rdf:RDF xmlns:rdf="http://www.w3.org/1999/02/22-rdf-syntax-ns#">
      <rdf:Description rdf:about=""/>
   </rdf:RDF>
</x:xmpmeta>
                                                                                                    
                                                                                                    
                                                                                                    
                                                                                                    
                                                                                                    
                                                                                                    
                                                                                                    
                                                                                                    
                                                                                                    
                                                                                                    
                                                                                                    
                                                                                                    
                                                                                                    
                                                                                                    
                                                                                                    
                                                                                                    
                                                                                                    
                                                                                                    
                                                                                                    
                                                                                                    
                           
<?xpacket end="w"?></metadata>
<defs>
    <style>
      .cls-1 {
        fill: #007303;
        fill-rule: evenodd;
      }
    </style>
  </defs>
  <path class="cls-1" d="M828.947,196.161C744.39,111.646,632.086,64.985,512.47,64.985S280.549,111.646,195.993,196.161C32.879,359.2,21.067,619.675,166.37,796.2c-20.061,41.04-43.685,68.4-70.5,81.517a41.738,41.738,0,0,0,12,78.706,213.108,213.108,0,0,0,31.685,2.436h0c54.933,0,112.679-18.927,160.864-52.1A448.225,448.225,0,0,0,512.47,959.985c119.616,0,231.92-46.474,316.477-130.989S960,632.043,960,512.672,913.5,280.677,828.947,196.161Zm-35.81,596.855C718.142,867.974,618.4,909.2,512.47,909.2a396.988,396.988,0,0,1-200.986-54.533,25.2,25.2,0,0,0-28.31,1.687c-57.371,44.412-115.117,50.972-140.428,51.533,30.186-22.487,55.5-57.342,76.682-105.878a25.459,25.459,0,0,0-4.312-26.984C76.376,618.363,83.688,379.621,231.8,231.579c75-74.958,174.738-116.185,280.668-116.185s205.672,41.227,280.667,116.185C948,386.555,948,638.414,793.137,793.016Zm-93.181-428.2H324.983a25.3,25.3,0,1,0,0,50.6H699.956A25.3,25.3,0,1,0,699.956,364.817Zm0,122.369H324.983a25.3,25.3,0,1,0,0,50.6H699.956A25.3,25.3,0,1,0,699.956,487.186Zm0,122.37H324.983a25.3,25.3,0,1,0,0,50.6H699.956A25.3,25.3,0,1,0,699.956,609.556Z"/>
</svg>
