<svg xmlns="http://www.w3.org/2000/svg" width="1024" height="1024" viewBox="0 0 1024 1024">
  <metadata><?xpacket begin="﻿" id="W5M0MpCehiHzreSzNTczkc9d"?>
<x:xmpmeta xmlns:x="adobe:ns:meta/" x:xmptk="Adobe XMP Core 5.6-c138 79.159824, 2016/09/14-01:09:01        ">
   <rdf:RDF xmlns:rdf="http://www.w3.org/1999/02/22-rdf-syntax-ns#">
      <rdf:Description rdf:about=""/>
   </rdf:RDF>
</x:xmpmeta>
                                                                                                    
                                                                                                    
                                                                                                    
                                                                                                    
                                                                                                    
                                                                                                    
                                                                                                    
                                                                                                    
                                                                                                    
                                                                                                    
                                                                                                    
                                                                                                    
                                                                                                    
                                                                                                    
                                                                                                    
                                                                                                    
                                                                                                    
                                                                                                    
                                                                                                    
                                                                                                    
                           
<?xpacket end="w"?></metadata>
<defs>
    <style>
      .cls-1 {
        fill: #fff;
        fill-rule: evenodd;
      }
    </style>
  </defs>
  <path id="Forma_1_copy" data-name="Forma 1 copy" class="cls-1" d="M356.375,98H97V357.375H356.375V98ZM304.5,305.5H148.875V149.875H304.5V305.5ZM200.75,201.75h51.875v51.875H200.75V201.75ZM667.625,98V357.375H927V98H667.625Zm207.5,207.5H719.5V149.875H875.125V305.5ZM771.375,201.75H823.25v51.875H771.375V201.75ZM97,928H356.375V668.625H97V928Zm51.875-207.5H304.5V876.125H148.875V720.5Zm51.875,51.875h51.875V824.25H200.75V772.375ZM512,98H615.75v51.875H512V98Zm0,207.5h51.875V253.625H615.75V201.75H460.125V149.875H408.25v103.75H512V305.5Zm-103.75,0h51.875v51.875H408.25V305.5Zm207.5,51.875H563.875V409.25H408.25v51.875h207.5V357.375Zm-466.875,207.5H200.75V513H148.875V409.25H97v207.5h51.875V564.875ZM200.75,409.25h51.875v51.875H200.75V409.25Zm207.5,207.5H512V564.875H460.125V513H356.375V409.25H304.5V513H252.625V616.75H304.5V564.875H408.25V616.75ZM563.875,513H615.75V616.75H563.875V513Zm0,155.625H408.25V720.5H512V876.125H408.25V928H563.875V876.125h103.75V824.25H563.875V668.625ZM408.25,772.375h51.875V824.25H408.25V772.375Zm207.5-103.75h51.875v103.75H615.75V668.625Zm259.375,103.75H719.5V928h51.875V824.25h103.75V772.375ZM823.25,876.125H927V928H823.25V876.125Zm51.875-207.5H927V720.5H875.125V668.625ZM719.5,720.5h51.875V564.875H667.625V616.75H719.5V720.5ZM823.25,461.125H771.375V409.25H719.5v51.875H667.625V513h207.5V461.125H927V409.25H823.25v51.875Zm0,103.75H927V616.75H823.25V564.875Z"/>
</svg>
